<?xml version="1.0" encoding="UTF-8"?>
<svg xmlns="http://www.w3.org/2000/svg" version="1.1" viewBox="0 0 1240 416">
  <defs>
    <style>
      .cls-1 {
        fill: #fff;
      }

      .cls-2 {
        fill: #00703c;
      }

      .cls-3, .cls-4 {
        fill: #231f20;
      }

      .cls-4 {
        stroke: #231f20;
        stroke-width: .2px;
      }
    </style>
  </defs>
  <!-- Generator: Adobe Illustrator 28.7.1, SVG Export Plug-In . SVG Version: 1.2.0 Build 142)  -->
  <g>
    <g id="Layer_1">
      <rect class="cls-1" y="2" width="1240" height="412"/>
      <g>
        <path class="cls-3" d="M309.1,84.4c-2.5-2.5-2.5-9.9.9-10.9,10.6.6,23.9.9,39.1.9s19.3,0,30.4-.9c0,19.3,10.9,38.2,24.5,67.4l20.5,43.8c2.8,6.2,12.4,23.9,16.8,31.7,4-7.5,9-17.1,17.4-35.4l15.8-34.2c14.9-32,21.7-46.6,28.6-73.3,14.3,1.2,23.9.9,33.2.9s24.5-.3,35.7-.9c3.4,1.9,3.4,7.8.9,10.9l-9,1.6c-12.7,2.2-18.9,5.9-18.9,22.4,0,64,.6,97.5,2.5,136.6.6,14.3,1.9,21.7,14,23.3l9.9,1.2c2.5,2.5,2.5,9.6-.6,10.9-14.3-.6-27.6-.9-42.9-.9s-31.1.3-46,.9c-3.7-1.6-4-8.7-.9-10.9l9.3-1.2c14.3-1.9,14.3-5.6,14.3-24.5l-.6-80.7v-35.4h-.6c-23,49.7-47.8,101.5-68.3,154-1.6,1.2-3.7,2.2-6.2,2.2s-6.2-.6-8.1-1.9c-12.1-38.5-49.1-114-66.5-154.3h-.6c-1.2,20.2-1.9,32.3-2.2,48.4-.3,20.2-.6,51.2-.6,69.9s1.9,19.9,14.3,21.7l12.1,1.9c2.5,2.2,1.9,9.3-.6,10.9-11.5-.6-24.8-.9-36.6-.9s-22.7.3-35.1.9c-4-1.2-4-9.3-1.2-10.9l5.6-.9c15.8-2.8,16.8-4.7,18.6-23.9,1.6-15.2,3.1-42.2,5-71.7,1.2-20.8,2.2-46,2.2-62.7s-6.8-22.4-19.3-24.5l-6.8-1.2Z"/>
        <path class="cls-3" d="M719.9,202.4c-15.8,37.6-24.2,62.1-31.4,79.5-2.5,1.6-6.2,2.5-10.9,2.5s-6.5-.9-8.4-2.5c-3.4-8.4-8.7-24.8-13-35.4l-50.3-126.4c-11.8-29.8-13.4-30.4-23.3-32.9l-12.4-3.1c-2.5-3.4-1.6-9,1.2-10.6,15.8.3,26.1.9,42.2.9s27.6-.3,46.6-.9c2.5,1.9,2.2,7.8.3,10.6l-9.3,1.9c-5.6,1.2-7.8,3.1-7.8,5.9s5,15.5,12.4,34.2l27.3,69.9c4.3,11.5,7.5,18.6,9.6,23.9,2.5-5.3,6.2-13.7,9.9-23l11.5-29.2c7.8-19.6,20.8-54.3,24.5-64.9,2.2-5.9,3.1-9.3,3.1-11.2s-.9-3.4-8.4-5.3l-9-2.2c-2.5-2.5-2.5-9,1.2-10.6,14.6.6,26.4.9,38.2.9s19.9-.3,28.9-.9c2.5,1.2,2.8,8.7.6,10.6l-8.1,1.6c-8.7,1.6-13,4.3-17.1,10.9-6.8,10.2-15.2,27-25.8,52.2l-22.7,53.7Z"/>
        <path class="cls-3" d="M947.5,77.6c0,5.6.9,30.4,3.7,48.4-1.2,3.7-9.6,5-11.8,2.2-8.4-28.9-28.3-44.4-58.4-44.4s-71.4,29.5-71.4,91.3,35.7,95,73,95,55-27,63.3-48.1c2.5-2.5,9.9-1.6,11.8,2.2-2.2,23-7.5,41.6-11.8,48.8-16.8,4.7-38.8,11.5-63,11.5s-61.5-7.1-83.5-23.6c-22.4-17.1-39.4-42.9-39.4-81.4s16.1-64.6,37.6-82.3c22-18.3,53.7-27.6,86-27.6s54.7,7.5,64,8.1Z"/>
        <path class="cls-3" d="M1157.8,77.6c0,5.6.9,30.4,3.7,48.4-1.2,3.7-9.6,5-11.8,2.2-8.4-28.9-28.3-44.4-58.4-44.4s-71.4,29.5-71.4,91.3,35.7,95,73,95,55-27,63.3-48.1c2.5-2.5,9.9-1.6,11.8,2.2-2.2,23-7.5,41.6-11.8,48.8-16.8,4.7-38.8,11.5-63,11.5s-61.5-7.1-83.5-23.6c-22.4-17.1-39.4-42.9-39.4-81.4s16.1-64.6,37.6-82.3c22-18.3,53.7-27.6,86-27.6s54.7,7.5,64,8.1Z"/>
      </g>
      <g>
        <path class="cls-4" d="M98.6,319.7h-.1l-10,33.1h-5.2l-9.5-33.1h-.1v33.1h-6.6v-39.7h10.9l8.2,29.7h.1l8.4-29.7h10.5v39.7h-6.6v-33.1Z"/>
        <path class="cls-4" d="M132.2,312.5c8.3,0,15.8,6.1,15.8,20.4s-7.6,20.4-15.8,20.4-15.8-6.1-15.8-20.4,7.6-20.4,15.8-20.4ZM132.2,347.8c4.6,0,8.3-3.9,8.3-14.9s-3.7-14.9-8.3-14.9-8.3,3.9-8.3,14.9,3.7,14.9,8.3,14.9Z"/>
        <path class="cls-4" d="M159.3,313.1h7.3v16.2h11.8v-16.2h7.3v39.7h-7.3v-17.5h-11.8v17.5h-7.3v-39.7Z"/>
        <path class="cls-4" d="M218.5,343.3h-13.7l-2.8,9.6h-7.3l13.3-39.7h8l12.8,39.7h-7.5l-2.8-9.6ZM216.9,337.7l-5-18.6h-.1l-5.5,18.6h10.6Z"/>
        <path class="cls-4" d="M255.9,320.3h-.1l-6.3,32.6h-8.6l-8-39.7h6.8l5.6,30.6h.1l6-30.6h8.9l5.9,30.6h.1l5.8-30.6h6.6l-8.2,39.7h-8.7l-5.9-32.6Z"/>
        <path class="cls-4" d="M288.2,313.1h7.3v16.8h.2l11.3-16.8h8.4l-13.5,18.7,14.6,21h-8.8l-12-18.7h-.2v18.7h-7.3v-39.7Z"/>
        <path class="cls-4" d="M340.8,313.1h7.9l8,30.6h.1l8.3-30.6h7.5l-12.1,39.7h-7.7l-12-39.7Z"/>
        <path class="cls-4" d="M398.8,343.3h-13.7l-2.8,9.6h-7.3l13.3-39.7h8l12.8,39.7h-7.5l-2.8-9.6ZM397.2,337.7l-5-18.6h-.1l-5.5,18.6h10.6Z"/>
        <path class="cls-4" d="M417.7,313.1h7.3v33.9h13.1v5.8h-20.4v-39.7Z"/>
        <path class="cls-4" d="M447.4,313.1h7.3v33.9h13.1v5.8h-20.4v-39.7Z"/>
        <path class="cls-4" d="M477.5,313.1h20.9v5.8h-13.6v10.6h12.9v5.8h-12.9v11.7h14.2v5.8h-21.5v-39.7Z"/>
        <path class="cls-4" d="M518.4,336.9l-11.7-23.8h7.9l7.7,15.9,7.3-15.9h7.9l-11.7,24v15.8h-7.3v-15.9Z"/>
        <path class="cls-4" d="M591,352c-1.5.8-5,1.4-8.6,1.4-12.1,0-18.3-8.8-18.3-20.4s6.2-20.4,18-20.4,7.3,1.1,8.8,1.7l-.4,6.5c-1.5-.7-3.8-2.2-7.5-2.2-6,0-11.2,4.1-11.2,14.4s5.2,14.4,11.2,14.4,5.9-.9,7.5-2l.4,6.7Z"/>
        <path class="cls-4" d="M616,312.5c8.3,0,15.8,6.1,15.8,20.4s-7.6,20.4-15.8,20.4-15.8-6.1-15.8-20.4,7.6-20.4,15.8-20.4ZM616,347.8c4.6,0,8.3-3.9,8.3-14.9s-3.7-14.9-8.3-14.9-8.3,3.9-8.3,14.9,3.7,14.9,8.3,14.9Z"/>
        <path class="cls-4" d="M674.5,319.7h-.1l-10,33.1h-5.2l-9.5-33.1h-.1v33.1h-6.6v-39.7h10.9l8.2,29.7h.1l8.4-29.7h10.5v39.7h-6.6v-33.1Z"/>
        <path class="cls-4" d="M725.4,319.7h-.1l-10,33.1h-5.2l-9.5-33.1h-.1v33.1h-6.6v-39.7h10.9l8.2,29.7h.1l8.4-29.7h10.5v39.7h-6.6v-33.1Z"/>
        <path class="cls-4" d="M751.7,313.1v25.7c0,6.6,2,8.8,6.3,8.8s6.2-2.2,6.2-8.8v-25.7h7.3v25.7c0,10.5-6,14.6-13.5,14.6s-13.5-4.1-13.5-14.6v-25.7h7.3Z"/>
        <path class="cls-4" d="M783.9,313.1h8.6l13.2,31.2h.1v-31.2h6.6v39.7h-8.7l-13.1-31h-.1v31h-6.6v-39.7Z"/>
        <path class="cls-4" d="M825.4,313.1h7.3v39.7h-7.3v-39.7Z"/>
        <path class="cls-4" d="M851.4,318.9h-8.9v-5.8h25v5.8h-8.8v33.9h-7.3v-33.9Z"/>
        <path class="cls-4" d="M885.4,336.9l-11.7-23.8h7.9l7.7,15.9,7.3-15.9h7.9l-11.7,24v15.8h-7.3v-15.9Z"/>
        <path class="cls-4" d="M958,352c-1.5.8-5,1.4-8.6,1.4-12.1,0-18.3-8.8-18.3-20.4s6.2-20.4,18-20.4,7.3,1.1,8.8,1.7l-.4,6.5c-1.5-.7-3.8-2.2-7.5-2.2-6,0-11.2,4.1-11.2,14.4s5.2,14.4,11.2,14.4,5.9-.9,7.5-2l.4,6.7Z"/>
        <path class="cls-4" d="M983,312.5c8.3,0,15.8,6.1,15.8,20.4s-7.6,20.4-15.8,20.4-15.8-6.1-15.8-20.4,7.6-20.4,15.8-20.4ZM983,347.8c4.6,0,8.3-3.9,8.3-14.9s-3.7-14.9-8.3-14.9-8.3,3.9-8.3,14.9,3.7,14.9,8.3,14.9Z"/>
        <path class="cls-4" d="M1009.8,313.1h7.3v33.9h13.1v5.8h-20.4v-39.7Z"/>
        <path class="cls-4" d="M1039.5,313.1h7.3v33.9h13.1v5.8h-20.4v-39.7Z"/>
        <path class="cls-4" d="M1069.6,313.1h20.9v5.8h-13.6v10.6h12.9v5.8h-12.9v11.7h14.2v5.8h-21.5v-39.7Z"/>
        <path class="cls-4" d="M1118.3,330.6h12.9v20.8c-2,1.1-5.6,2-10.8,2-12.8,0-19.5-8.7-19.5-20.4s6.8-20.4,19.5-20.4,8.1,1,9.7,1.7l-.4,6.5c-2.3-1.4-5.5-2.4-9.2-2.4-7.7,0-11.9,6.4-11.9,14.6s4,14.6,11.5,14.6,3.2-.3,4.2-.7v-10.7h-6v-5.6Z"/>
        <path class="cls-4" d="M1143.8,313.1h20.9v5.8h-13.6v10.6h12.9v5.8h-12.9v11.7h14.2v5.8h-21.5v-39.7Z"/>
      </g>
      <g>
        <rect class="cls-2" x="67" y="72.4" width="206.9" height="206.9"/>
        <path class="cls-1" d="M235.3,110.9c-51.7,0-94.2,42.5-94.2,94.2,51.7,0,94.2-42.5,94.2-94.2Z"/>
        <path class="cls-1" d="M105.8,101.8c-36.5,36.5-36.5,96.7,0,133.2,36.5-36.5,36.5-96.7,0-133.2Z"/>
        <path class="cls-1" d="M111.3,240.4c36.5,36.5,96.7,36.5,133.2,0-36.5-36.5-96.7-36.5-133.2,0Z"/>
      </g>
    </g>
  </g>
</svg>